<?xml version="1.0" standalone="no"?>
<!DOCTYPE svg PUBLIC "-//W3C//DTD SVG 20010904//EN"
 "http://www.w3.org/TR/2001/REC-SVG-20010904/DTD/svg10.dtd">
<svg version="1.0" xmlns="http://www.w3.org/2000/svg"
 width="670.000000pt" height="670.000000pt" viewBox="0 0 670.000000 670.000000"
 preserveAspectRatio="xMidYMid meet">
<metadata>
Created by potrace 1.14, written by Peter Selinger 2001-2017
</metadata>
<g transform="translate(0.000000,670.000000) scale(0.100000,-0.100000)"
fill="#000000" stroke="none">
<path d="M2900 6425 c0 -9 64 -45 80 -45 8 0 -5 11 -29 25 -45 26 -51 28 -51
20z"/>
<path d="M3392 6424 c4 -3 32 -14 65 -24 l58 -18 -69 -1 c-39 -1 -95 4 -127
11 -44 9 -74 9 -135 -1 -44 -7 -126 -17 -184 -21 -58 -5 -141 -19 -185 -30
-44 -12 -98 -27 -120 -32 -22 -6 -53 -21 -70 -33 -16 -12 -55 -31 -85 -43 -91
-34 -262 -123 -309 -161 -81 -66 -161 -144 -161 -156 0 -7 -11 -20 -24 -29
-27 -17 -86 -98 -86 -117 0 -6 15 7 33 29 17 22 45 51 61 63 28 22 28 21 -7
-27 -51 -72 -84 -151 -91 -218 -7 -63 -18 -85 -45 -87 -9 -1 -5 -4 9 -8 17 -5
29 -2 37 8 8 10 12 11 13 4 0 -6 -5 -15 -10 -18 -36 -22 -48 -124 -14 -111 12
4 11 0 -1 -24 -8 -16 -15 -36 -15 -45 0 -8 -4 -15 -10 -15 -5 0 -10 -5 -10
-11 0 -5 5 -7 12 -3 6 4 -3 -18 -21 -49 -18 -32 -29 -57 -26 -57 4 0 3 -6 -2
-12 -5 -7 -9 -20 -8 -28 1 -8 -4 -26 -10 -40 -21 -44 -28 -83 -13 -74 10 6 9
3 -1 -9 -7 -9 -9 -17 -3 -17 6 0 8 -17 6 -42 -2 -24 -6 -113 -8 -198 -2 -85
-7 -196 -12 -247 -6 -85 -9 -92 -30 -97 -13 -4 -31 -18 -40 -32 -23 -34 -14
-172 21 -319 56 -237 60 -286 52 -655 -2 -112 15 -153 76 -184 29 -14 35 -21
27 -31 -7 -9 -7 -14 -1 -17 6 -1 13 -22 16 -45 4 -34 2 -43 -10 -43 -8 0 -15
-4 -15 -9 0 -5 9 -7 20 -4 18 5 20 0 20 -40 0 -33 -4 -47 -17 -52 -16 -6 -15
-8 6 -19 18 -10 20 -15 10 -19 -11 -4 -11 -7 -2 -14 7 -5 14 -20 15 -33 3 -22
-2 -25 -30 -28 -28 -3 -30 -5 -18 -18 8 -8 22 -14 31 -14 12 0 15 -6 10 -20
-5 -15 -3 -18 8 -14 8 3 17 -2 20 -10 4 -9 2 -16 -3 -16 -5 0 0 -16 12 -35 17
-30 19 -45 14 -88 -7 -48 -6 -50 8 -32 17 22 18 21 20 -17 1 -15 -2 -24 -6
-22 -17 10 7 -32 25 -45 15 -11 16 -15 6 -22 -11 -7 -11 -9 -1 -9 7 0 10 -4 7
-10 -3 -5 0 -10 8 -10 8 0 22 -17 31 -39 15 -31 16 -43 6 -60 -10 -19 -9 -22
7 -19 11 2 18 -3 18 -12 0 -8 8 -18 18 -22 15 -7 50 -67 51 -91 1 -5 12 -15
26 -22 22 -13 23 -14 5 -16 -13 0 -9 -4 13 -10 17 -5 32 -14 32 -20 0 -6 -9
-8 -20 -4 -38 12 -20 -6 25 -25 48 -20 60 -32 23 -22 -14 3 -19 2 -14 -6 4 -7
14 -12 22 -12 8 0 13 -5 11 -12 -1 -7 13 -20 30 -29 18 -9 30 -19 27 -22 -4
-3 9 -15 27 -26 22 -14 28 -21 17 -21 -33 0 -18 -19 20 -26 20 -4 31 -9 24
-11 -8 -3 -6 -10 7 -21 13 -11 27 -51 42 -115 18 -84 20 -100 8 -111 -8 -7
-59 -30 -114 -51 -55 -21 -154 -62 -220 -91 -66 -28 -174 -71 -240 -94 -125
-44 -289 -122 -435 -207 -336 -195 -416 -290 -538 -633 -61 -172 -152 -553
-152 -637 l0 -23 789 0 788 0 11 83 c17 127 45 204 111 302 47 69 58 92 51
106 -6 10 -10 30 -9 46 l1 28 9 -27 c6 -15 19 -30 31 -34 19 -6 19 -7 -6 -33
-30 -31 -36 -53 -8 -27 18 15 20 15 34 -1 9 -10 25 -37 37 -60 l21 -42 34 20
c19 11 48 24 65 29 46 13 55 -5 48 -100 -9 -110 -26 -140 -79 -140 -34 0 -53
27 -67 95 -22 109 -33 142 -56 170 -25 30 -25 30 -41 10 -8 -11 -20 -19 -26
-17 -6 2 -8 -4 -5 -12 4 -9 1 -15 -5 -13 -6 1 -13 -4 -16 -12 -3 -9 0 -11 7
-6 7 4 -1 -16 -16 -44 -22 -40 -26 -54 -17 -68 20 -33 57 -27 106 16 50 44 67
38 42 -14 l-14 -30 5 35 5 34 -37 -36 c-44 -42 -74 -53 -103 -38 -22 12 -27
49 -9 82 6 11 8 22 6 25 -10 9 -47 -76 -61 -139 -8 -35 -16 -91 -19 -126 l-5
-63 150 3 151 3 43 63 c55 80 67 123 68 239 1 57 5 92 11 89 6 -2 9 -44 8
-102 -1 -113 -16 -163 -68 -234 -19 -26 -35 -50 -35 -54 0 -3 419 -6 930 -6
l930 0 11 24 c9 19 8 29 -5 47 -18 26 -21 91 -6 120 19 35 63 24 104 -26 36
-43 40 -45 89 -45 34 0 70 -9 105 -25 l53 -25 59 25 c32 14 66 22 74 19 22 -9
20 -51 -5 -85 l-20 -29 747 0 747 0 -6 62 c-4 43 -16 83 -40 130 -39 76 -34
99 8 39 31 -46 65 -148 65 -197 0 -34 0 -34 45 -34 l45 0 0 468 -1 467 -57 40
c-231 160 -321 213 -397 237 -47 14 -51 17 -20 12 37 -5 33 -1 -50 47 -49 28
-117 70 -149 92 -60 40 -274 168 -501 299 -70 40 -141 90 -169 119 -108 108
-488 272 -726 313 -44 8 -42 6 136 -94 78 -44 149 -89 159 -100 13 -15 19 -38
20 -86 l1 -65 -81 -69 c-45 -37 -156 -140 -247 -227 -394 -379 -849 -666
-1225 -774 -91 -26 -116 -23 -30 3 41 13 67 26 67 35 0 8 4 11 10 8 5 -3 7 0
4 9 -4 11 -12 13 -30 6 -15 -6 -24 -6 -24 0 0 6 5 10 11 10 6 0 9 9 6 20 -3
11 -2 20 3 20 21 0 16 41 -7 65 -20 19 -22 26 -11 30 19 7 17 57 -2 63 -8 3
-19 9 -25 14 -5 5 -19 16 -30 24 -11 9 -15 13 -8 10 19 -10 21 18 2 35 -17 14
-17 18 -3 37 8 12 23 22 33 22 10 0 24 7 31 15 10 13 9 15 -12 15 -13 0 -29
-5 -35 -11 -8 -8 -11 -6 -10 7 2 15 -6 20 -31 22 -18 2 -30 8 -27 13 4 5 -3 9
-14 9 -22 0 -28 19 -11 36 7 7 1 9 -20 6 -18 -3 -30 0 -30 7 0 6 -10 11 -22
11 -20 0 -21 1 -4 13 16 12 14 15 -21 41 -21 16 -31 26 -21 23 26 -9 30 4 6
24 -11 11 -16 19 -10 19 6 0 13 -4 16 -9 7 -11 46 -2 46 10 0 5 7 9 16 9 8 0
13 4 10 9 -3 5 -14 7 -24 4 -9 -2 -38 0 -62 6 -38 8 -42 8 -27 -3 16 -13 15
-14 -13 -18 -16 -3 -30 -1 -30 4 0 4 6 8 13 8 7 1 5 6 -6 14 -16 12 -16 14 -2
20 9 3 13 10 10 16 -4 7 3 7 20 0 32 -12 85 -13 103 -2 7 5 -6 8 -31 6 -24 -1
-50 2 -58 7 -10 6 -10 9 -1 9 6 0 12 12 12 27 0 19 -3 24 -11 16 -11 -11 -49
-6 -49 7 0 7 45 16 105 22 11 1 25 8 30 15 6 7 27 14 47 15 21 1 35 5 33 9 -8
12 6 39 20 39 7 0 15 5 17 12 2 6 18 11 36 10 41 -1 41 5 0 17 l-33 9 31 1
c16 1 34 5 40 10 5 5 18 11 29 14 14 3 11 5 -10 6 -26 1 -27 3 -12 12 9 5 21
8 26 5 5 -3 28 1 52 9 24 9 49 13 56 11 7 -3 13 -1 13 4 0 5 10 12 22 16 19 6
19 7 4 16 -13 7 -14 12 -4 22 7 7 22 15 33 19 20 7 20 7 1 -8 -14 -10 -17 -18
-9 -26 9 -9 40 -2 107 26 14 6 17 5 11 -4 -6 -10 -3 -11 14 -2 25 14 28 26 4
17 -15 -5 -15 -4 1 9 26 20 2 19 -28 0 -30 -20 -89 -37 -81 -24 4 5 13 9 22 9
9 0 35 16 59 35 23 19 47 35 53 35 6 0 11 4 11 9 0 5 -10 7 -22 5 -21 -4 -22
-4 -3 5 15 7 24 5 34 -8 12 -14 12 -13 6 7 -5 18 -2 25 14 29 11 3 18 10 15
15 -4 6 1 8 12 4 11 -3 33 -2 49 3 22 7 25 10 9 10 -25 1 -34 9 -28 25 3 7 18
10 41 8 25 -3 34 -1 29 7 -4 7 1 11 13 11 11 0 23 5 27 11 5 8 -1 10 -17 6
-13 -3 -33 -1 -44 3 -17 7 -15 9 12 9 17 1 35 5 38 11 3 5 18 10 33 10 18 0
23 3 14 9 -10 6 -10 10 3 21 13 11 15 10 12 -6 -1 -11 -6 -25 -10 -31 -14 -23
21 -14 49 12 14 13 30 23 34 20 9 -6 62 60 54 67 -2 3 2 11 11 18 12 10 15 10
15 -2 0 -8 -5 -19 -12 -26 -8 -8 -9 -12 -1 -12 6 0 20 10 30 23 10 12 27 22
38 22 27 0 46 15 38 29 -12 18 -13 45 -3 51 6 3 10 1 10 -5 0 -6 5 -8 11 -5 6
4 8 13 5 21 -3 7 3 18 12 23 15 9 14 10 -7 11 -13 0 -21 3 -17 7 4 5 13 8 19
8 7 0 12 7 12 15 0 8 4 21 8 28 5 6 4 12 0 12 -5 0 -15 -6 -22 -12 -10 -11
-10 -8 -1 13 6 14 20 31 31 37 17 11 21 9 30 -15 6 -16 13 -23 16 -16 2 6 -4
24 -13 38 -17 25 -17 28 -1 37 9 5 17 17 17 27 0 11 7 21 15 25 8 3 15 13 15
21 0 9 4 14 9 11 5 -4 17 -3 27 1 16 6 16 7 -2 13 -16 6 -13 9 19 20 20 8 37
18 37 23 0 5 -7 6 -16 3 -9 -3 -12 -2 -9 4 4 7 -3 9 -19 6 -14 -3 -28 -1 -31
4 -3 5 11 12 32 16 29 6 33 9 18 14 -13 5 -15 9 -7 14 22 13 2 25 -28 16 -17
-5 -30 -5 -30 0 0 4 24 11 53 15 43 6 48 9 30 16 -34 13 -29 37 10 42 29 4 30
5 10 12 -30 10 -29 19 3 40 23 15 26 22 21 56 -3 26 -1 39 6 40 7 0 3 4 -8 9
-19 9 -19 9 3 16 18 5 20 9 10 15 -10 7 -11 9 0 9 7 0 10 5 6 12 -5 7 0 9 14
6 l21 -6 -19 38 c-19 37 -19 40 -2 52 37 28 20 45 -40 39 -20 -2 -21 4 -8 34
9 20 9 20 9 0 1 -15 8 -21 26 -23 31 -2 32 14 3 45 -12 13 -16 23 -10 23 8 0
12 18 12 50 0 28 -4 50 -8 50 -10 0 -42 87 -42 113 0 35 18 7 25 -40 7 -43 8
-45 16 -24 10 26 18 24 24 -7 2 -15 0 -19 -11 -15 -19 7 -18 -6 4 -30 71 -79
83 -87 125 -87 23 0 49 5 57 10 11 7 6 8 -16 4 -31 -6 -124 29 -124 47 0 14 0
16 -21 71 -11 29 -27 74 -35 100 -8 26 -19 50 -24 53 -6 3 -10 21 -9 38 0 27
2 29 9 12 6 -14 8 -4 8 35 l0 54 -14 -33 c-16 -39 -19 -107 -4 -116 6 -3 10
-12 10 -18 0 -7 -4 -6 -10 3 -8 12 -10 11 -10 -7 0 -13 -3 -23 -7 -23 -5 0 -7
39 -7 87 1 49 0 70 -2 48 -13 -140 -15 -148 -30 -128 -10 14 -13 15 -13 3 0
-8 6 -24 14 -34 8 -11 16 -36 16 -55 l1 -36 7 30 7 30 17 -39 c9 -21 17 -45
17 -53 0 -8 5 -11 11 -7 13 7 3 -33 -12 -52 -5 -6 -7 -20 -3 -30 3 -11 -3 -7
-12 9 -10 15 -21 27 -25 27 -9 0 2 -49 12 -56 5 -3 9 -10 9 -15 0 -6 -4 -7
-10 -4 -5 3 -10 1 -10 -5 0 -6 -6 -8 -12 -4 -7 4 -5 -2 6 -14 10 -12 16 -28
13 -36 -4 -10 2 -16 21 -19 27 -4 27 -4 -3 -6 -16 -1 -37 -6 -45 -12 -11 -8
-5 -9 23 -4 23 4 37 2 37 -5 0 -9 -37 -15 -69 -10 -12 1 -13 -1 -2 -13 10 -13
9 -15 -11 -11 -21 5 -21 4 -5 -6 10 -7 27 -10 37 -7 10 2 24 1 31 -4 11 -7 9
-9 -5 -9 -17 0 -18 -2 -5 -13 8 -6 12 -11 10 -10 -2 2 -9 -1 -15 -6 -7 -6 -18
-4 -30 5 -19 13 -19 14 -1 14 10 0 16 3 12 6 -3 4 -13 4 -21 1 -12 -5 -13 -10
-3 -31 7 -14 19 -27 27 -30 11 -3 11 -4 -2 -5 -16 -1 -23 -12 -19 -33 0 -5 -6
-8 -15 -8 -9 0 -12 -5 -8 -12 4 -7 -3 -4 -16 7 l-23 20 17 -32 c9 -18 16 -34
16 -38 0 -12 -34 -4 -46 13 -7 9 -14 12 -14 5 0 -17 31 -45 44 -40 6 3 20 8
31 12 l20 8 -20 -16 c-11 -9 -15 -17 -10 -17 6 0 -3 -7 -19 -15 -20 -11 -33
-12 -40 -5 -5 5 -6 10 -2 10 5 0 3 7 -4 15 -15 18 -34 20 -23 3 21 -34 8 -39
-19 -8 -19 22 -27 28 -23 15 4 -11 8 -28 10 -38 2 -9 7 -21 10 -27 3 -5 3 -21
-1 -35 -5 -20 -9 -23 -20 -14 -19 15 -18 -1 2 -29 8 -12 22 -22 30 -22 9 0 14
-6 12 -12 -6 -16 -58 -23 -58 -9 0 6 -7 11 -15 11 -13 0 -13 -3 -3 -20 17 -27
2 -37 -22 -15 -29 26 -25 3 5 -25 14 -13 25 -28 25 -33 0 -5 -18 10 -41 34
-22 24 -38 36 -35 26 7 -23 -4 -22 -50 8 l-39 25 42 -37 c32 -29 40 -42 33
-53 -7 -11 -10 -11 -10 -2 0 7 -5 10 -12 6 -6 -4 -8 -3 -5 3 7 11 -20 40 -29
31 -2 -3 0 -17 5 -32 10 -26 -1 -37 -15 -15 -5 8 -10 6 -16 -5 -8 -14 -12 -15
-25 -4 -15 12 -15 10 -4 -11 7 -13 17 -38 22 -55 l8 -31 -34 37 c-36 39 -47
39 -19 0 8 -12 12 -22 8 -22 -5 0 7 -16 26 -35 34 -35 33 -50 -2 -18 -15 13
-18 14 -18 2 0 -8 6 -21 13 -29 10 -12 9 -12 -5 -1 -15 11 -18 11 -19 0 0 -8
-5 -4 -11 8 -16 34 -31 28 -24 -9 l6 -33 -21 27 c-11 16 -25 28 -31 28 -6 0
-4 -7 3 -17 13 -15 12 -15 -9 -2 -12 8 -25 22 -28 32 -9 30 -17 11 -9 -23 4
-20 12 -30 20 -26 8 3 19 -2 27 -11 11 -14 10 -15 -10 -9 -14 5 -22 3 -22 -5
0 -9 -3 -9 -15 1 -12 10 -13 7 -5 -19 8 -29 7 -30 -12 -20 -11 6 -22 8 -25 5
-4 -3 -12 -1 -20 5 -9 8 -13 8 -13 1 0 -6 5 -14 10 -17 6 -3 10 -16 10 -27 0
-21 -2 -20 -30 7 -16 16 -32 26 -35 23 -3 -3 1 -11 10 -18 8 -7 15 -21 15 -31
0 -11 5 -19 12 -19 9 0 9 -3 0 -12 -10 -10 -17 -7 -34 10 -17 16 -19 22 -8 22
13 0 13 2 1 9 -8 5 -20 7 -28 4 -12 -5 -12 -8 0 -22 8 -9 17 -24 20 -34 6 -16
3 -15 -26 4 -17 13 -36 29 -40 36 -13 21 -29 16 -17 -6 14 -28 13 -74 -2 -68
-7 2 -12 13 -10 25 3 22 -26 88 -34 79 -3 -3 2 -19 11 -37 9 -18 15 -34 12
-36 -8 -9 -27 23 -36 62 -7 30 -9 33 -11 14 -1 -22 -3 -21 -16 12 -9 20 -23
39 -32 43 -13 5 -12 2 3 -15 13 -14 18 -33 17 -56 -2 -20 1 -33 6 -30 5 3 20
-7 33 -22 15 -17 17 -21 5 -12 -15 12 -20 12 -23 3 -3 -7 -11 -13 -19 -13 -9
0 -12 -5 -8 -11 4 -8 0 -8 -15 0 -12 7 -21 8 -20 4 1 -4 0 -17 -1 -28 -2 -17
-3 -16 -9 5 -4 14 -13 25 -21 25 -8 0 -14 9 -14 18 1 10 -1 16 -4 12 -3 -3
-12 5 -19 17 -11 21 -12 19 -13 -27 -1 -46 -2 -49 -15 -31 -14 19 -15 18 -15
-10 l-1 -29 -17 28 c-18 29 -38 37 -28 12 3 -8 2 -25 -3 -37 -8 -21 -8 -21
-15 5 -3 15 -4 39 -1 55 4 19 3 22 -3 8 -7 -17 -9 -17 -24 -2 -24 24 -47 21
-40 -6 3 -14 2 -19 -6 -14 -7 4 -12 2 -12 -4 0 -6 -4 -9 -9 -6 -5 3 -12 -6
-15 -19 -4 -16 -11 -23 -18 -19 -9 6 -9 9 0 12 7 2 12 21 12 43 0 22 5 49 10
60 8 13 7 19 0 19 -6 0 -13 -13 -16 -30 -4 -16 -13 -30 -20 -30 -14 0 -16 -9
-15 -70 0 -31 -1 -29 -12 15 -16 64 -44 76 -39 16 5 -52 -17 -80 -43 -55 -10
11 -14 25 -11 39 4 15 1 25 -9 29 -12 4 -15 -3 -13 -36 3 -35 0 -43 -16 -46
-11 -2 -25 3 -32 13 -11 15 -13 15 -22 -1 -15 -26 -45 -10 -39 21 2 14 0 28
-4 31 -5 3 -9 -12 -10 -33 0 -21 -3 -33 -5 -26 -4 8 -14 9 -35 3 -32 -10 -34
-8 -18 22 10 19 9 20 -10 15 -11 -3 -21 -1 -21 5 0 6 -11 8 -24 4 -14 -3 -28
-1 -31 4 -5 8 -12 7 -23 -2 -15 -11 -15 -11 -4 3 10 13 9 19 -3 29 -9 8 -13
21 -9 33 4 13 2 17 -5 13 -7 -5 -9 -1 -5 9 4 8 1 22 -6 30 -10 12 -8 18 11 35
13 10 20 19 14 20 -20 0 -38 -18 -40 -43 -5 -39 -15 -67 -27 -67 -6 0 -8 19
-5 49 6 54 -6 88 -18 52 -3 -12 -11 -19 -16 -15 -6 4 -6 11 1 19 7 8 9 19 5
25 -3 5 1 20 9 32 22 31 20 41 -4 26 -11 -7 -23 -23 -27 -35 -6 -17 -12 -20
-23 -13 -11 7 -12 12 -3 21 9 9 3 16 -24 30 -20 10 -40 16 -44 13 -5 -3 -9 0
-9 6 0 6 -5 8 -10 5 -6 -4 -10 9 -11 32 0 21 -3 32 -6 25 -4 -10 -9 -8 -20 8
-13 19 -13 23 3 41 15 16 15 19 1 19 -8 0 -18 -6 -21 -12 -3 -7 -3 -3 0 10 4
16 1 22 -11 22 -15 0 -15 2 -1 22 20 27 22 68 4 50 -17 -17 -31 -15 -20 4 5 9
7 27 4 40 -3 20 -7 22 -23 13 -14 -7 -19 -6 -19 4 0 8 -12 19 -26 25 -14 7
-23 16 -20 21 4 5 1 11 -5 13 -15 5 0 38 18 38 8 0 11 -5 7 -11 -4 -7 -1 -10
7 -7 8 3 13 10 12 17 -2 6 8 13 22 17 14 3 25 10 25 14 0 10 -46 -2 -80 -20
-21 -11 -22 -10 -16 6 6 15 2 14 -18 -5 -29 -28 -36 -53 -7 -27 17 16 18 16
14 -7 -4 -20 -10 -23 -44 -21 -21 1 -39 -2 -39 -7 0 -5 3 -8 8 -8 21 4 32 -2
27 -13 -4 -7 1 -4 10 7 15 19 15 19 11 -5 -2 -15 -9 -24 -17 -22 -23 6 -59 44
-59 63 0 22 16 34 23 17 4 -8 6 -9 6 -2 1 6 -7 18 -16 25 -11 10 -14 10 -9 2
4 -7 3 -13 -3 -13 -15 0 -18 10 -23 65 -3 28 -3 42 -1 33 7 -28 21 -21 15 7
-4 22 -1 25 22 25 16 0 26 -5 26 -15 0 -19 19 -19 26 0 12 30 25 2 19 -41 -5
-36 -3 -43 10 -38 8 3 13 10 10 14 -3 4 2 14 11 21 12 10 15 10 12 -1 -4 -20
27 -23 46 -5 15 15 16 15 16 0 0 -14 3 -14 31 0 29 15 30 15 21 -2 -14 -25 5
-63 20 -42 7 10 8 8 5 -8 -3 -13 -1 -23 4 -23 5 0 9 -5 9 -11 0 -6 16 -29 36
-51 25 -28 34 -46 30 -60 -2 -11 2 -27 10 -35 13 -14 17 -13 34 2 15 14 23 15
33 6 11 -9 16 -3 26 29 6 22 16 40 21 40 6 0 10 7 10 15 0 17 14 19 40 5 27
-15 54 30 39 64 -21 44 -7 56 66 56 63 0 65 1 55 20 -9 16 -8 22 4 26 22 8 37
-5 34 -28 -5 -33 19 -32 25 1 6 28 9 29 64 33 59 3 92 -13 93 -44 1 -7 8 -1
16 15 10 19 23 27 40 27 22 0 25 -4 21 -22 l-6 -23 121 7 c105 5 128 10 173
34 56 29 85 27 85 -6 0 -17 6 -20 44 -20 25 0 48 6 55 14 13 15 11 82 -3 104
-8 13 0 32 13 32 4 0 15 -15 24 -34 10 -23 22 -34 34 -32 10 2 24 -4 31 -13
12 -14 13 -13 8 9 -3 14 -6 52 -6 86 0 57 -3 64 -40 107 -22 25 -40 56 -40 69
0 24 -36 62 -142 152 l-58 48 0 -27 c0 -27 102 -195 119 -195 3 0 28 -20 53
-44 31 -29 46 -52 45 -66 -1 -20 -2 -20 -14 -4 -10 13 -13 14 -13 3 0 -8 7
-23 15 -33 28 -36 15 -40 -20 -6 -29 29 -35 31 -41 16 -6 -16 -8 -16 -25 0
-11 9 -19 27 -19 40 0 22 -48 89 -57 80 -3 -2 5 -18 17 -34 12 -17 19 -35 15
-41 -9 -15 -25 -4 -19 13 3 7 -2 18 -10 25 -12 10 -14 8 -11 -16 5 -52 -6 -55
-42 -8 -40 50 -51 55 -48 23 2 -40 16 -67 35 -73 18 -6 27 -24 33 -66 2 -8 6
-20 11 -27 10 -17 10 -17 -41 -29 -22 -6 -47 -7 -54 -2 -8 4 -39 6 -70 2 -33
-3 -64 -1 -76 5 -11 6 -23 8 -27 5 -10 -11 -76 -13 -76 -3 0 5 -16 6 -35 3
-24 -4 -35 -2 -35 7 0 9 -4 9 -12 2 -22 -17 -187 -13 -242 6 -43 15 -50 21
-52 47 -3 23 -1 25 5 11 7 -17 11 -14 35 25 24 39 26 41 21 14 -4 -17 -3 -25
2 -18 12 17 47 11 58 -11 12 -23 37 -34 34 -15 -7 54 10 62 46 23 24 -26 25
-26 25 -5 0 18 6 21 40 21 30 0 40 -4 40 -16 0 -13 3 -14 13 -5 8 6 17 8 20 4
4 -3 7 1 7 11 0 15 2 16 15 2 8 -8 15 -23 15 -32 0 -22 16 -8 24 21 3 11 3 2
1 -19 -7 -65 15 -26 25 44 9 63 20 92 20 51 0 -14 7 -25 20 -28 13 -3 20 -14
20 -28 0 -12 8 -29 17 -36 15 -13 16 -12 10 9 -4 12 -10 32 -13 45 l-7 22 23
-21 c16 -16 22 -33 22 -63 0 -23 3 -41 9 -41 5 0 9 19 9 43 l1 42 15 -28 c11
-20 20 -26 34 -22 13 4 22 -1 30 -15 6 -12 21 -20 35 -20 33 0 32 16 -2 34
-16 8 -22 15 -15 16 7 0 10 5 7 10 -4 6 -11 8 -16 4 -5 -3 -9 -2 -8 3 1 4 -3
22 -10 38 -7 17 -13 44 -13 60 0 25 -1 27 -8 10 -7 -18 -9 -18 -19 10 -9 21
-14 26 -20 16 -6 -10 -12 -6 -20 15 l-11 29 5 -28 c4 -19 1 -26 -7 -25 -20 4
-27 20 -18 38 6 12 5 17 -5 17 -8 0 -11 -7 -7 -16 4 -10 -4 -8 -27 9 -33 23
-33 23 -22 1 7 -12 10 -39 8 -59 l-4 -37 -1 41 c-3 65 -36 89 -125 91 -40 1
-82 2 -94 2 -14 1 -23 7 -23 16 0 8 -7 15 -16 15 -9 0 -12 5 -8 11 5 9 43 10
129 6 99 -5 127 -3 144 9 29 20 27 30 -11 48 -44 23 -91 20 -146 -8 -69 -35
-153 -27 -239 23 -69 40 -77 53 -75 126 2 71 15 109 40 120 22 10 22 13 23
235 1 258 6 306 35 343 17 21 34 28 85 35 38 6 51 10 32 11 -41 1 -44 21 -4
21 52 0 85 -57 62 -106 -16 -36 -14 -53 18 -148 53 -156 124 -254 245 -339 92
-65 158 -84 318 -91 94 -3 134 7 71 19 l-38 7 38 17 c37 16 36 16 -105 16
-125 1 -150 4 -199 23 -150 60 -260 243 -263 437 -1 80 2 95 24 130 l24 39 19
-42 c19 -46 54 -67 95 -59 17 3 22 1 18 -9 -3 -8 -9 -20 -12 -28 -3 -9 1 -13
13 -13 15 2 19 -8 23 -53 5 -51 7 -55 31 -56 15 -1 37 -8 50 -17 31 -22 228
-25 210 -4 -6 8 -29 19 -50 26 -49 14 -58 27 -37 50 15 17 15 20 1 34 -8 9
-15 17 -15 19 0 2 37 3 81 4 74 0 83 3 100 25 15 19 19 21 19 7 0 -11 5 -15
15 -12 16 7 113 -35 152 -65 20 -17 29 -18 46 -10 18 10 19 12 4 21 -10 5 -17
17 -17 27 0 20 -70 74 -126 97 -21 9 -80 24 -132 34 -51 10 -96 21 -99 24 -6
5 41 10 99 10 9 0 15 3 12 8 -3 4 1 8 8 8 10 0 9 3 -2 11 -11 8 -5 9 25 6 38
-5 39 -5 12 7 -15 7 -24 15 -21 19 4 4 -5 7 -19 7 -16 0 -32 -8 -39 -20 -7
-11 -18 -20 -25 -20 -21 0 -15 17 7 23 13 3 18 11 14 20 -8 22 66 27 150 10
38 -8 71 -12 73 -9 6 6 -92 36 -121 37 -12 1 -3 5 19 9 22 4 50 4 62 -1 13 -5
31 -5 40 -1 28 10 -63 21 -125 15 -40 -4 -56 -2 -62 8 -13 20 0 33 14 13 11
-14 18 -15 49 -5 38 13 58 31 35 31 -8 0 -18 -4 -23 -9 -17 -15 -55 -23 -55
-12 0 6 6 11 14 11 8 0 16 7 19 14 4 11 17 14 44 10 l38 -4 -40 15 c-22 9 -52
14 -67 12 -20 -2 -28 1 -28 11 0 11 -3 12 -13 4 -8 -7 -49 -9 -112 -5 -55 3
-125 6 -157 7 -42 1 -54 4 -46 13 16 19 -71 7 -93 -13 -13 -12 -19 -13 -19 -4
0 9 -3 10 -14 1 -7 -6 -13 -30 -13 -52 0 -23 -5 -44 -10 -48 -5 -3 -14 -22
-19 -41 l-10 -35 -85 2 -84 2 48 -13 c26 -7 51 -17 55 -21 4 -5 -2 -5 -12 -1
-11 4 -45 9 -77 13 -32 3 -56 9 -54 13 8 13 -23 20 -82 20 -39 0 -59 5 -67 16
-7 8 -31 18 -54 21 -37 5 -54 16 -117 80 -44 45 -71 66 -68 54 6 -25 -5 -27
-35 -5 -23 16 -115 46 -129 42 -4 -1 -19 4 -33 12 -22 12 -24 12 -12 -2 11
-13 5 -17 -38 -25 -27 -6 -50 -7 -50 -3 0 4 -8 7 -17 6 -14 -1 -18 7 -17 37 0
26 -4 36 -12 33 -9 -3 -11 1 -7 12 11 30 15 33 29 21 12 -9 14 -6 14 20 0 18
5 30 11 29 6 -2 14 3 16 10 3 6 -2 12 -10 12 -10 0 -13 7 -10 20 3 11 10 20
15 20 5 0 7 12 5 28 -2 15 4 45 14 67 15 32 19 35 19 16 0 -20 2 -21 15 -11
19 16 2 40 -29 41 -15 0 -16 2 -6 6 8 3 18 11 22 17 4 6 15 11 24 11 10 0 20
7 22 15 4 12 3 13 -10 3 -19 -17 -30 -5 -17 18 5 11 7 19 3 19 -4 0 1 10 12
22 19 22 19 23 -1 8 -11 -8 -23 -19 -26 -23 -3 -4 -12 -1 -19 8 -10 12 -10 15
4 15 20 0 39 17 48 42 11 27 -5 31 -24 6 -15 -20 -18 -21 -18 -5 0 23 28 77
40 77 5 0 7 24 4 53 -6 85 -9 95 -18 90 -4 -3 -12 1 -17 8 -13 21 -11 33 5 20
11 -9 14 -7 18 11 2 13 1 34 -3 48 -7 24 -7 25 -8 2 -1 -13 -5 -21 -10 -18 -5
4 -12 0 -15 -6 -3 -7 -3 -2 1 12 4 14 6 38 5 54 -1 29 14 60 27 52 4 -3 8 7 9
22 3 36 13 43 66 49 25 3 43 9 40 14 -3 5 5 9 17 9 12 0 36 9 54 20 27 16 45
19 104 16 40 -2 69 0 65 5 -3 5 1 7 8 5 7 -2 29 -7 48 -10 31 -6 32 -5 16 7
-17 13 -14 15 35 20 30 4 70 7 90 7 50 0 102 19 92 34 -4 7 1 3 11 -9 l19 -20
-6 23 c-4 19 -2 22 15 16 17 -5 19 -3 13 16 -5 15 -4 20 4 16 6 -4 11 -15 11
-24 0 -15 2 -15 10 -2 8 12 10 10 11 -10 0 -23 1 -23 9 -5 5 11 9 16 10 10 1
-5 5 -1 10 10 l9 20 1 -20 1 -20 9 20 c8 18 9 18 10 -5 l1 -25 15 28 c8 15 17
27 20 27 3 0 2 -4 -1 -10 -3 -5 -1 -10 6 -10 8 0 8 -4 -1 -15 -7 -9 -10 -18
-7 -22 4 -3 12 7 19 22 11 24 13 25 19 8 6 -15 8 -14 18 12 9 21 14 26 20 16
7 -11 9 -11 14 0 3 9 8 6 15 -11 9 -22 11 -22 12 -5 0 17 2 17 10 5 5 -8 10
-10 10 -5 0 6 5 3 11 -5 8 -11 12 -12 16 -2 7 18 24 15 17 -3 -5 -11 -2 -13
10 -9 9 3 13 10 10 15 -3 5 2 6 10 3 9 -3 16 -2 16 3 0 5 13 10 29 10 21 0 31
-6 35 -19 4 -17 8 -18 26 -8 15 8 20 8 16 1 -9 -13 0 -14 23 -2 30 17 101 20
101 5 0 -8 -5 -14 -12 -14 -6 0 -3 -6 7 -14 12 -8 26 -11 35 -6 8 4 29 10 45
13 25 5 31 2 32 -13 1 -12 -6 -20 -20 -23 -12 -2 1 -5 28 -5 35 -1 46 1 35 8
-10 6 3 7 40 3 63 -7 78 -13 32 -13 -39 0 -53 -20 -15 -21 l28 -1 -30 -8 -30
-8 37 -1 c51 -1 74 -11 56 -23 -9 -6 -3 -8 18 -6 20 3 30 0 28 -6 -2 -6 9 -18
25 -27 35 -20 103 -130 87 -141 -7 -5 -6 -8 3 -8 8 0 12 -3 8 -6 -3 -3 2 -22
13 -41 10 -18 15 -43 12 -55 -4 -15 -2 -19 7 -14 8 5 10 19 6 39 -6 32 -6 32
8 7 9 -16 11 -31 5 -43 -6 -11 -5 -24 2 -35 11 -16 11 -16 6 1 -4 11 -2 17 5
15 6 -2 10 -7 10 -11 -1 -4 -1 -17 -1 -29 0 -18 -2 -20 -10 -8 -7 11 -9 10 -7
-9 1 -12 13 -33 27 -45 35 -29 49 -52 26 -43 -11 4 -15 3 -10 -4 4 -8 -1 -9
-15 -4 -13 4 4 -19 46 -61 37 -38 60 -62 51 -55 -10 7 -18 10 -18 5 0 -4 -12
3 -27 17 -16 13 -22 17 -15 9 15 -18 16 -34 0 -24 -7 4 -8 3 -4 -5 4 -6 13 -8
19 -5 7 4 9 4 5 -1 -4 -4 -2 -15 5 -24 10 -14 10 -14 -5 -3 -13 10 -17 10 -21
0 -3 -10 -8 -10 -23 2 -11 8 -3 -1 17 -20 20 -19 51 -56 69 -82 18 -26 36 -45
40 -43 4 3 13 -2 20 -10 6 -7 18 -11 26 -8 12 4 12 8 2 21 -11 13 -9 13 12 -1
29 -20 44 -22 34 -4 -4 6 3 3 15 -8 12 -11 18 -21 12 -23 -6 -2 -8 -9 -4 -15
4 -7 -1 -6 -10 2 -9 7 -17 9 -17 3 0 -5 7 -15 15 -22 15 -13 18 -100 3 -100
-5 0 -9 6 -9 13 -4 37 -28 97 -41 97 -5 0 -7 4 -3 9 3 5 0 13 -6 17 -8 5 -9 3
-4 -7 5 -8 -1 -5 -13 5 -23 20 -31 9 -9 -12 6 -7 12 -18 12 -25 0 -7 6 -12 12
-12 7 0 20 -11 29 -23 13 -19 14 -26 4 -35 -9 -9 -11 -9 -7 -1 4 7 -10 24 -30
40 l-37 28 27 -35 c16 -21 26 -47 25 -61 -2 -24 -3 -25 -25 -11 -13 8 -21 19
-18 23 3 5 -6 17 -20 28 -13 11 -22 22 -18 25 3 4 -2 9 -11 13 -9 3 -16 12
-16 20 0 7 -9 18 -19 24 -31 16 -32 12 -6 -16 14 -15 22 -30 20 -35 -3 -4 -1
-10 4 -14 6 -3 8 -11 6 -18 -3 -7 18 -27 46 -45 27 -18 47 -37 44 -42 -3 -5
-1 -11 4 -15 6 -3 8 -12 4 -21 -3 -8 5 -26 18 -40 13 -14 24 -34 24 -44 0 -11
4 -19 9 -19 5 0 15 -13 22 -30 7 -17 18 -31 24 -31 5 0 10 -4 10 -10 0 -5 -8
-10 -17 -10 -10 0 -66 -12 -125 -26 l-107 -26 -126 27 c-70 15 -129 24 -132
21 -3 -3 8 -8 23 -11 45 -10 51 -13 26 -14 -57 -2 -59 -49 -8 -152 26 -50 27
-60 21 -129 -9 -95 -46 -210 -92 -280 -32 -49 -33 -52 -9 -30 27 24 96 151 96
176 0 8 5 14 11 14 6 0 8 -12 5 -32 l-6 -33 16 34 c17 37 49 160 60 227 4 25
14 45 26 53 11 7 75 26 142 42 66 16 130 32 141 35 16 4 17 3 5 -5 -12 -9 -10
-11 10 -11 39 0 51 -13 55 -60 2 -23 7 -45 11 -49 4 -3 5 6 2 21 -3 15 -2 32
2 38 9 15 21 -154 15 -205 -4 -30 -3 -35 4 -20 5 11 10 39 10 63 1 23 6 42 12
42 7 0 8 12 4 33 -5 25 -4 29 5 17 9 -12 10 -9 6 15 -4 18 0 42 9 59 8 15 15
36 15 45 0 9 9 35 19 57 15 32 26 44 49 49 16 3 36 14 44 23 22 26 40 93 42
155 0 32 4 57 7 57 3 0 5 12 3 27 -1 15 2 47 7 72 16 76 17 92 9 124 -3 18 -3
44 1 59 4 16 3 31 -3 34 -5 3 -8 15 -5 25 3 10 1 22 -4 25 -5 3 -5 13 -1 22 9
19 9 29 -3 56 -4 10 -4 21 1 25 13 9 17 34 4 26 -5 -3 -15 6 -20 20 -13 34
-13 38 3 29 6 -4 4 2 -6 13 -18 21 -18 21 5 25 23 4 23 4 -4 17 -15 8 -29 20
-32 28 -4 11 -1 11 14 3 27 -15 26 -9 -9 59 -12 23 -12 23 16 17 26 -7 26 -5
-16 33 -42 39 -50 71 -19 71 8 1 5 7 -6 15 -19 15 -19 15 5 16 23 1 23 1 -6
14 l-30 14 35 1 c54 1 69 16 23 23 -24 4 -48 17 -61 32 -26 30 -27 38 -6 56 8
7 22 26 31 42 l15 30 -28 -22 -29 -23 -3 30 c-2 20 -8 29 -16 26 -17 -6 -32
14 -39 52 -4 23 0 40 19 67 14 21 20 37 15 37 -6 0 -15 -10 -22 -21 -18 -34
-29 -5 -29 74 0 47 -3 66 -11 61 -6 -3 -9 -19 -5 -34 l5 -28 -26 24 c-14 13
-33 24 -42 24 -13 0 -13 2 -2 9 10 6 11 13 2 29 -8 15 -8 29 -1 48 6 15 8 29
5 32 -4 4 -18 -25 -38 -78 -5 -13 -6 -12 -6 1 -1 9 -14 43 -30 75 -15 32 -32
72 -37 88 -5 16 -16 31 -24 34 -12 4 -13 2 -2 -9 6 -7 12 -21 12 -31 0 -18 -1
-18 -21 1 -12 11 -22 31 -23 45 -1 23 -16 39 -16 17 0 -19 -39 2 -42 23 -2 11
-7 21 -13 21 -5 0 -16 4 -24 9 -10 7 -12 6 -6 -3 5 -9 0 -12 -16 -9 -27 4 -49
41 -56 99 -8 58 -23 58 -23 0 0 -28 -4 -51 -8 -51 -12 0 -36 29 -55 65 -9 17
-16 26 -17 22 0 -5 -12 6 -26 23 -35 41 -43 30 -12 -17 13 -21 28 -47 31 -57
7 -16 5 -17 -9 -5 -9 7 -22 14 -30 15 -8 1 -28 14 -44 28 -32 26 -115 56 -157
56 -13 0 -65 13 -116 29 -50 16 -118 33 -149 36 -32 4 -57 11 -55 17 1 6 -20
19 -48 28 -49 18 -94 26 -83 14z m-124 -381 c-10 -2 -28 -2 -40 0 -13 2 -5 4
17 4 22 1 32 -1 23 -4z m-1148 -137 c0 -2 -8 -10 -17 -17 -16 -13 -17 -12 -4
4 13 16 21 21 21 13z m1659 -280 c-2 -2 -15 -9 -29 -15 -24 -11 -24 -11 -6 3
16 13 49 24 35 12z m-1349 -209 c0 -2 -10 -12 -22 -23 l-23 -19 19 23 c18 21
26 27 26 19z m1855 -356 c17 -20 22 -30 13 -22 -10 7 -18 10 -18 5 1 -14 26
-44 32 -39 7 8 68 -63 68 -78 0 -7 -8 2 -18 18 -25 40 -52 63 -52 44 0 -8 -9
1 -21 20 -11 18 -18 36 -15 39 7 7 -24 42 -37 42 -5 0 -3 -7 4 -17 13 -15 12
-15 -9 -2 -18 11 -20 16 -9 24 8 6 12 17 10 25 -2 9 1 8 9 -4 7 -11 27 -35 43
-55z m-1868 17 c-3 -7 -5 -2 -5 12 0 14 2 19 5 13 2 -7 2 -19 0 -25z m1903
-131 c12 3 20 0 20 -7 0 -7 13 -29 28 -49 55 -69 45 -65 -36 15 -45 45 -82 85
-82 89 0 3 11 -7 25 -23 17 -21 31 -28 45 -25z m139 19 c-3 -3 -11 5 -18 17
-13 21 -12 21 5 5 10 -10 16 -20 13 -22z m-40 -50 c-3 -3 -11 5 -18 17 -13 21
-12 21 5 5 10 -10 16 -20 13 -22z m59 -21 c-3 -3 -9 2 -12 12 -6 14 -5 15 5 6
7 -7 10 -15 7 -18z m-132 -66 c1 -5 2 -13 3 -18 0 -5 8 -12 17 -15 14 -5 15
-4 5 8 -9 11 -9 16 0 22 8 5 9 3 4 -6 -6 -10 -4 -12 11 -6 10 4 16 4 13 1 -3
-3 9 -21 27 -41 35 -36 44 -59 22 -52 -7 3 -15 13 -16 24 -2 10 -8 24 -14 29
-6 6 -6 3 -2 -10 8 -19 7 -19 -19 -2 -38 25 -41 21 -16 -15 l22 -33 -34 35
c-19 20 -45 49 -59 65 l-25 30 28 -25 28 -25 -5 29 c-3 16 -2 25 2 21 4 -3 8
-11 8 -16z m285 -16 c13 -16 12 -17 -3 -4 -17 13 -22 21 -14 21 2 0 10 -8 17
-17z m-176 -23 c9 -17 20 -28 26 -25 5 4 8 3 7 -2 -4 -13 22 -53 34 -53 6 0 5
7 -3 18 -12 15 -12 16 2 5 12 -10 14 -22 9 -50 -5 -29 -2 -46 12 -70 23 -39
16 -43 -17 -7 -17 19 -23 34 -20 60 2 27 -3 42 -26 66 -25 28 -55 88 -44 88 3
0 12 -14 20 -30z m228 -76 c-3 -8 -10 -11 -15 -8 -6 4 -5 10 3 15 9 5 10 9 3
9 -7 0 -15 8 -18 17 -6 15 -5 15 13 -1 11 -10 17 -24 14 -32z m-46 16 c-3 -11
-1 -20 3 -20 5 0 11 -14 15 -31 4 -17 16 -40 26 -50 10 -10 16 -19 13 -19 -4
0 -1 -7 6 -15 7 -8 8 -15 2 -15 -5 0 -15 7 -22 15 -7 8 -9 15 -5 15 5 0 2 8
-6 18 -33 40 -55 122 -32 122 3 0 3 -9 0 -20z m-53 -16 c26 -39 14 -44 -17 -7
-20 23 -24 33 -14 33 8 0 22 -12 31 -26z m9 -59 c9 2 15 0 12 -5 -3 -5 0 -10
7 -12 6 -2 12 -16 12 -30 1 -15 -3 -24 -8 -21 -5 4 -7 -2 -3 -13 7 -18 7 -18
-8 0 -8 11 -15 25 -15 32 0 7 -9 19 -20 27 -11 8 -23 25 -25 38 l-4 24 17 -21
c9 -12 25 -20 35 -19z m157 -11 c0 -8 -4 -12 -10 -9 -5 3 -10 13 -10 21 0 8 5
12 10 9 6 -3 10 -13 10 -21z m-186 -94 c15 0 17 5 12 28 l-7 27 19 -30 c14
-23 18 -44 15 -89 -2 -32 1 -64 7 -71 6 -7 13 -23 15 -35 2 -12 7 -31 11 -42
4 -13 2 -18 -4 -14 -6 3 -13 1 -15 -4 -3 -6 -4 -5 -3 2 1 7 -4 19 -11 27 -8 8
-12 22 -10 32 3 12 0 19 -9 19 -18 0 -18 -18 0 -52 9 -16 11 -30 5 -33 -5 -4
-9 -2 -9 2 0 5 -16 26 -35 48 -39 45 -47 68 -13 39 l22 -19 -22 36 c-12 20
-22 47 -21 60 0 20 2 19 13 -10 10 -28 14 -31 19 -17 4 10 4 36 0 59 -6 36 -8
38 -13 17 -5 -20 -7 -16 -17 25 l-11 50 22 -27 c12 -16 30 -28 40 -28z m194
20 c17 -27 10 -25 -19 6 -13 14 -17 23 -9 19 9 -3 21 -14 28 -25z m-392 -8
c-4 -3 -14 2 -24 12 -16 18 -16 18 6 6 13 -6 21 -14 18 -18z m330 -4 c16 -18
20 -25 8 -15 -24 20 -38 22 -29 5 4 -7 -1 -4 -9 6 -37 45 -11 48 30 4z m-27
-42 c-3 -3 -11 5 -18 17 -13 21 -12 21 5 5 10 -10 16 -20 13 -22z m-175 -42
c8 -24 11 -42 5 -39 -9 6 -13 -8 -9 -35 3 -23 -10 -6 -15 20 -2 12 -12 28 -22
36 -10 7 -14 14 -10 14 4 0 3 9 -3 20 -18 33 -2 22 25 -17 14 -21 25 -32 25
-25 0 12 -4 21 -32 75 -10 20 -9 21 5 9 8 -7 22 -33 31 -58z m161 26 c11 -14
27 -26 35 -28 8 -2 24 -13 35 -24 11 -11 14 -18 8 -14 -7 4 -13 2 -13 -3 0 -6
4 -11 9 -11 5 0 11 -7 15 -15 7 -19 -14 -15 -32 5 -8 8 -11 9 -7 3 7 -15 -11
-18 -20 -4 -3 5 5 17 17 25 l22 16 -21 0 c-12 0 -30 11 -41 25 -11 14 -26 24
-33 23 -7 -2 -15 5 -17 15 -5 25 19 18 43 -13z m85 -13 c11 -4 9 -6 -5 -6 -22
-1 -45 16 -45 33 0 5 8 2 18 -6 9 -9 24 -18 32 -21z m-107 -38 c4 8 5 8 3 0
-1 -7 19 -32 44 -56 32 -32 38 -41 20 -32 -14 6 -35 23 -48 38 l-22 26 20 -36
c16 -29 17 -36 5 -36 -8 0 -13 2 -10 5 2 2 -3 19 -12 36 -18 34 -30 82 -14 57
6 -9 10 -10 14 -2z m-1178 -29 c-11 -5 -27 -9 -35 -9 -13 -1 -13 0 0 9 8 5 24
9 35 9 l20 0 -20 -9z m323 -31 c-2 -7 -19 -14 -38 -16 -50 -5 -19 19 33 26 5
0 7 -4 5 -10z m739 -61 c-3 -8 -6 -5 -6 6 -1 11 2 17 5 13 3 -3 4 -12 1 -19z
m-999 5 c-10 -2 -26 -2 -35 0 -10 3 -2 5 17 5 19 0 27 -2 18 -5z m99 1 c-3 -3
-12 -4 -19 -1 -8 3 -5 6 6 6 11 1 17 -2 13 -5z m-1384 -11 c-13 -2 -33 -2 -45
0 -13 2 -3 4 22 4 25 0 35 -2 23 -4z m180 0 c-13 -2 -33 -2 -45 0 -13 2 -3 4
22 4 25 0 35 -2 23 -4z m1264 1 c-3 -3 -12 -4 -19 -1 -8 3 -5 6 6 6 11 1 17
-2 13 -5z m896 -17 c15 -23 15 -24 -10 -19 -16 3 -21 7 -13 12 7 4 9 13 6 19
-14 22 2 11 17 -12z m-2430 6 c-7 -2 -19 -2 -25 0 -7 3 -2 5 12 5 14 0 19 -2
13 -5z m344 1 c-3 -3 -12 -4 -19 -1 -8 3 -5 6 6 6 11 1 17 -2 13 -5z m1286 -1
c-7 -2 -21 -2 -30 0 -10 3 -4 5 12 5 17 0 24 -2 18 -5z m-130 -20 c-29 -2 -77
-2 -105 0 -29 2 -6 3 52 3 58 0 81 -1 53 -3z m-1803 -59 c0 -32 -1 -34 -16
-20 -8 9 -25 17 -37 17 -17 1 -14 3 8 8 17 4 29 12 28 19 -2 7 2 12 7 12 6 0
10 -16 10 -36z m27 -6 c-3 -8 -6 -5 -6 6 -1 11 2 17 5 13 3 -3 4 -12 1 -19z
m146 -5 c-7 -2 -13 -9 -13 -14 0 -6 4 -8 9 -5 4 3 8 -48 9 -114 0 -66 6 -153
12 -195 6 -41 9 -83 6 -93 -6 -19 19 -59 59 -95 27 -24 113 -64 150 -70 17 -2
24 -2 18 0 -7 3 -13 8 -13 13 0 12 26 31 33 23 4 -3 7 5 7 18 0 14 5 30 12 37
9 9 8 12 -5 12 -9 0 -17 5 -17 10 0 6 7 10 16 10 10 0 14 6 11 14 -6 16 24 56
41 56 6 0 14 9 17 20 3 11 9 20 13 21 4 0 16 3 27 5 11 2 41 7 68 10 26 3 47
10 47 14 0 4 19 4 41 -1 33 -8 47 -6 66 6 23 16 25 15 30 -5 4 -17 12 -21 29
-17 23 4 24 2 24 -66 l0 -71 -49 -47 c-88 -85 -233 -117 -391 -85 -135 28
-209 73 -253 154 -69 128 -95 283 -62 383 17 52 38 80 59 78 6 0 5 -3 -1 -6z
m-128 -53 c-3 -5 -14 -10 -23 -9 -14 0 -13 2 3 9 27 11 27 11 20 0z m620 -29
c3 -5 0 -13 -6 -17 -7 -4 -9 -3 -5 4 3 5 0 13 -6 15 -9 4 -10 6 -1 6 6 1 14
-3 18 -8z m2090 -32 c10 -43 1 -46 -12 -4 -6 19 -7 35 -3 35 5 0 11 -14 15
-31z m-1981 2 c4 -5 -3 -7 -14 -4 -23 6 -26 13 -6 13 8 0 17 -4 20 -9z m963
-23 c-3 -7 -5 -2 -5 12 0 14 2 19 5 13 2 -7 2 -19 0 -25z m-901 -61 c4 -4 -13
-7 -37 -6 -30 0 -38 3 -25 8 22 9 53 8 62 -2z m-551 -395 c11 -7 5 -5 -12 3
-43 20 -94 66 -116 104 -13 23 -1 14 45 -31 35 -35 72 -69 83 -76z m55 -22 c8
-5 11 -10 5 -10 -5 0 -17 5 -25 10 -8 5 -10 10 -5 10 6 0 17 -5 25 -10z m428
-84 c-4 -30 -17 -59 -47 -98 -22 -30 -41 -62 -41 -70 0 -25 -32 -45 -83 -52
-26 -4 -45 -11 -42 -17 4 -5 2 -9 -4 -9 -5 0 -13 5 -16 10 -4 6 -12 7 -18 3
-18 -11 -37 -12 -37 -2 0 5 -5 9 -11 9 -5 0 -7 -4 -4 -10 3 -5 -3 -10 -14 -10
-12 0 -21 3 -21 8 0 4 -10 12 -22 17 -13 6 -28 20 -34 32 -6 13 -14 20 -17 16
-4 -3 -7 1 -7 10 0 10 -4 17 -8 17 -5 0 -9 7 -9 15 0 8 4 12 9 9 4 -3 8 -1 8
5 0 5 -7 14 -16 19 -26 15 -8 47 39 71 32 16 74 23 177 30 74 5 153 16 175 24
22 8 42 15 44 16 2 0 1 -19 -1 -43z m761 -464 c-5 -2 -7 -9 -3 -15 3 -7 -2 -3
-10 7 -9 11 -16 28 -16 39 0 17 2 17 19 -4 11 -13 15 -26 10 -27z m-120 -15
c1 -5 -3 -5 -9 -2 -5 3 -10 16 -9 28 0 21 1 21 9 2 5 -11 9 -24 9 -28z m-92 1
c-3 -8 -6 -5 -6 6 -1 11 2 17 5 13 3 -3 4 -12 1 -19z m48 13 c3 -5 1 -12 -5
-16 -5 -3 -10 1 -10 9 0 18 6 21 15 7z m234 -66 c0 -5 -4 -3 -9 5 -5 8 -9 22
-9 30 0 16 17 -16 18 -35z m365 -11 c4 -10 2 -13 -6 -8 -11 7 -8 -24 7 -71 6
-18 5 -18 -5 -2 -6 9 -15 15 -19 13 -4 -3 -7 15 -7 40 0 44 18 60 30 28z
m-344 -25 c0 -6 -4 -7 -10 -4 -5 3 -10 11 -10 16 0 6 5 7 10 4 6 -3 10 -11 10
-16z m149 -25 c25 -52 23 -64 -4 -34 -15 17 -32 80 -21 80 2 0 14 -21 25 -46z
m888 20 c-3 -3 -12 -4 -19 -1 -8 3 -5 6 6 6 11 1 17 -2 13 -5z m-2037 -114 c0
-5 -5 -10 -11 -10 -5 0 -7 5 -4 10 3 6 8 10 11 10 2 0 4 -4 4 -10z m1858 -165
c-3 -3 -9 2 -12 12 -6 14 -5 15 5 6 7 -7 10 -15 7 -18z m50 -17 c20 -20 14
-27 -12 -15 -13 7 -22 15 -20 19 7 11 18 10 32 -4z m10 -65 c-10 -2 -26 -2
-35 0 -10 3 -2 5 17 5 19 0 27 -2 18 -5z m-1921 -65 c-3 -8 -6 -5 -6 6 -1 11
2 17 5 13 3 -3 4 -12 1 -19z m1840 -44 c-3 -3 -12 -4 -19 -1 -8 3 -5 6 6 6 11
1 17 -2 13 -5z m-136 -41 c13 -16 12 -17 -3 -4 -17 13 -22 21 -14 21 2 0 10
-8 17 -17z m-33 -38 c-3 -3 -13 7 -23 22 l-17 28 23 -22 c12 -12 20 -25 17
-28z m-8 -22 c7 -8 7 -13 1 -13 -12 0 -41 40 -41 55 0 5 7 1 15 -10 8 -11 19
-26 25 -32z m77 11 c-3 -3 -12 -4 -19 -1 -8 3 -5 6 6 6 11 1 17 -2 13 -5z m93
-104 c0 -5 -2 -10 -4 -10 -3 0 -8 5 -11 10 -3 6 -1 10 4 10 6 0 11 -4 11 -10z
m-35 -10 c-3 -5 -14 -10 -23 -9 -14 0 -13 2 3 9 27 11 27 11 20 0z m-1574 -49
c-12 -12 -21 -16 -21 -10 0 12 32 40 38 34 2 -2 -6 -13 -17 -24z m1586 4 c0
-6 -12 -9 -29 -7 -36 5 -36 17 0 18 16 1 29 -4 29 -11z m-65 -48 c-12 -13 -20
-26 -16 -29 3 -3 0 -9 -7 -14 -7 -4 -10 -3 -5 4 3 5 0 12 -6 15 -17 5 19 47
40 47 12 0 10 -5 -6 -23z m-1493 1 c0 -7 -4 -22 -9 -33 -7 -17 -9 -15 -9 13
-1 17 4 32 9 32 6 0 10 -6 9 -12z m1528 -12 c0 -7 -9 -18 -19 -25 -22 -14 -23
-4 -1 21 19 22 20 22 20 4z m-102 -36 c-10 -11 -22 -20 -28 -20 -5 0 1 9 14
20 31 25 37 25 14 0z m-793 -66 c-2 -13 -9 -27 -15 -31 -6 -4 -8 2 -4 18 4 13
7 33 7 44 0 15 3 16 9 7 4 -7 6 -24 3 -38z m434 9 c-7 -7 -26 7 -26 19 0 6 6
6 15 -2 9 -7 13 -15 11 -17z m-275 -26 c-8 -8 -11 -3 -11 19 1 25 2 27 11 11
8 -14 8 -22 0 -30z m399 -81 c0 -2 -7 -7 -16 -10 -8 -3 -12 -2 -9 4 6 10 25
14 25 6z m-373 -242 c-3 -3 -12 -4 -19 -1 -8 3 -5 6 6 6 11 1 17 -2 13 -5z
m-4 -21 c-7 -2 -19 -2 -25 0 -7 3 -2 5 12 5 14 0 19 -2 13 -5z m-170 -60 c-13
-2 -33 -2 -45 0 -13 2 -3 4 22 4 25 0 35 -2 23 -4z m-871 -60 c-3 -16 -7 -22
-10 -15 -4 13 4 42 11 42 2 0 2 -12 -1 -27z m828 23 c0 -2 -7 -6 -15 -10 -8
-3 -15 -1 -15 4 0 6 7 10 15 10 8 0 15 -2 15 -4z m2222 -31 c12 -14 27 -24 33
-21 7 2 12 -2 12 -9 0 -16 -17 -8 -62 29 -16 14 -24 25 -17 26 6 0 22 -11 34
-25z m-2273 -13 c-13 -20 -69 -46 -69 -32 0 5 10 12 22 16 12 3 28 13 36 20
19 20 24 17 11 -4z m2366 -44 c5 4 5 2 2 -4 -4 -7 23 -40 63 -78 66 -62 83
-86 60 -86 -6 0 -15 11 -20 24 -5 13 -22 33 -38 44 -16 12 -46 43 -68 69 -21
26 -31 42 -23 36 9 -7 20 -9 24 -5z m-2482 -15 c-7 -2 -19 -2 -25 0 -7 3 -2 5
12 5 14 0 19 -2 13 -5z m2635 -28 c71 -32 114 -71 93 -85 -12 -7 -12 -9 0 -12
8 -3 2 -3 -13 -1 -24 4 -27 2 -22 -14 8 -21 33 -43 48 -43 6 0 0 9 -14 20 -31
24 -11 26 36 4 45 -22 56 -39 18 -30 -51 13 -21 -2 76 -38 52 -19 88 -35 80
-35 -8 0 -60 17 -115 38 -58 23 -104 35 -109 30 -18 -16 -23 -10 -29 33 -4 27
-14 48 -29 61 l-23 18 30 -14 c17 -8 38 -11 48 -8 18 6 18 7 0 23 -33 29 -105
59 -136 58 -46 -3 -55 0 -32 11 17 8 16 9 -8 5 -15 -2 -30 1 -34 7 -11 18 71
1 135 -28z m-4 -19 c46 -19 54 -36 17 -33 -16 1 -27 5 -24 10 4 6 -12 11 -29
8 -5 0 -8 4 -8 10 0 5 -5 7 -12 3 -7 -4 -8 -3 -4 4 9 15 19 15 60 -2z m-2699
-16 c4 -6 -5 -10 -24 -8 -17 1 -31 6 -31 10 0 12 48 10 55 -2z m20 -130 c3 -5
-1 -10 -10 -10 -9 0 -13 5 -10 10 3 6 8 10 10 10 2 0 7 -4 10 -10z m-68 -36
c-3 -3 -12 -4 -19 -1 -8 3 -5 6 6 6 11 1 17 -2 13 -5z m3133 -44 c20 -6 21 -8
5 -8 -11 0 -31 4 -45 8 -20 6 -21 8 -5 8 11 0 31 -4 45 -8z m-2840 -140 c0
-13 -5 -18 -15 -14 -11 5 -12 9 -2 20 16 18 17 17 17 -6z m2828 -93 c-43 -33
-43 -34 -43 -98 0 -73 18 -107 73 -133 52 -25 168 -39 285 -33 81 3 106 2 97
-7 -8 -7 -65 -11 -176 -10 -157 2 -164 1 -159 -17 4 -10 4 -19 1 -19 -10 0
-48 24 -70 43 -20 17 -19 17 14 12 l35 -6 -35 16 c-19 9 -45 25 -57 37 l-22
20 6 -23 c6 -21 4 -22 -9 -11 -9 7 -22 11 -29 10 -8 -2 -13 3 -11 10 1 6 -6
12 -15 12 -9 0 -13 3 -9 8 4 4 18 7 29 7 21 0 22 4 19 66 -4 76 6 102 51 129
55 34 74 24 25 -13z m53 10 c-13 -16 8 -39 49 -56 14 -5 18 -10 10 -10 -8 -1
-30 8 -47 19 -34 20 -43 44 -20 53 19 8 20 8 8 -6z m-2826 -87 c3 -5 1 -10 -4
-10 -6 0 -11 5 -11 10 0 6 2 10 4 10 3 0 8 -4 11 -10z m-1894 -30 c26 0 57 -8
77 -20 40 -24 51 -25 97 -3 27 13 38 14 47 5 17 -17 -19 -90 -52 -107 -22 -11
-28 -25 -38 -77 -27 -146 -107 -299 -218 -415 -65 -68 -83 -93 -79 -109 4 -18
0 -21 -20 -21 -32 0 -43 16 -21 32 15 11 14 13 -11 17 -15 3 -37 9 -48 13 -16
7 -18 6 -7 -6 20 -21 14 -29 -18 -25 -41 5 -47 12 -26 35 16 17 16 26 6 73 -8
35 -8 62 -2 78 8 22 10 20 16 -22 4 -26 17 -61 30 -80 19 -28 28 -33 58 -32
20 1 50 11 68 24 47 34 134 143 175 222 35 66 42 96 15 63 -7 -8 -23 -15 -37
-15 -29 0 -52 47 -54 107 l-1 38 -9 -32 c-13 -45 -34 -56 -26 -14 l7 32 -34
-26 c-45 -34 -94 -51 -109 -36 -8 8 -5 11 12 11 27 0 98 40 129 73 20 21 20
24 6 52 -8 17 -27 42 -42 58 -14 15 -21 27 -15 27 11 0 73 -65 73 -78 0 -4 4
-13 9 -21 7 -11 16 -8 47 13 22 15 53 26 71 26 27 0 32 -4 36 -27 2 -16 3 -7
2 19 -2 44 0 47 19 42 26 -6 71 26 79 56 6 25 7 25 -48 -2 l-46 -22 -42 22
c-23 12 -64 24 -92 27 -30 3 -55 12 -62 21 -17 24 -5 39 16 20 10 -10 36 -16
62 -16z m5017 -104 c15 -9 21 -15 13 -16 -17 0 -91 73 -91 91 0 8 11 -3 25
-23 14 -21 38 -44 53 -52z m-5116 -51 c9 -19 8 -29 -6 -50 -17 -26 -59 -34
-71 -14 -9 14 2 55 21 73 22 23 43 20 56 -9z m1905 -91 c-3 -3 -12 -4 -19 -1
-8 3 -5 6 6 6 11 1 17 -2 13 -5z m-54 -11 c-7 -2 -21 -2 -30 0 -10 3 -4 5 12
5 17 0 24 -2 18 -5z m-599 -249 c28 -11 11 -86 -23 -99 -37 -14 -46 49 -13 88
17 20 15 19 36 11z m3866 -179 c0 -13 -7 -31 -16 -39 -17 -17 -89 -23 -79 -6
3 6 16 10 29 10 29 0 46 18 46 48 0 13 4 20 10 17 6 -3 10 -17 10 -30z"/>
<path d="M4340 4790 c0 -5 5 -10 11 -10 5 0 7 5 4 10 -3 6 -8 10 -11 10 -2 0
-4 -4 -4 -10z"/>
<path d="M4511 4664 c0 -11 3 -14 6 -6 3 7 2 16 -1 19 -3 4 -6 -2 -5 -13z"/>
<path d="M4588 4635 c5 -11 11 -27 14 -35 3 -10 6 -7 11 9 3 13 3 20 0 17 -3
-3 -12 2 -20 12 -13 16 -13 15 -5 -3z"/>
<path d="M4567 4543 c-13 -3 -16 -11 -11 -31 3 -15 6 -40 5 -57 0 -16 3 -24 5
-17 3 6 10 10 15 6 8 -5 14 28 9 51 -1 6 -3 20 -4 32 0 13 -1 22 -1 22 0 -1
-8 -3 -18 -6z"/>
<path d="M1957 4020 c5 -69 35 -175 58 -206 7 -10 1 22 -15 71 -16 50 -33 115
-39 145 l-9 55 5 -65z"/>
<path d="M2330 3795 c-8 -9 -8 -15 -2 -15 12 0 26 19 19 26 -2 2 -10 -2 -17
-11z"/>
<path d="M2365 3420 c-3 -5 -1 -10 4 -10 6 0 11 5 11 10 0 6 -2 10 -4 10 -3 0
-8 -4 -11 -10z"/>
<path d="M2274 3370 c1 -30 10 -38 21 -20 8 12 -3 50 -15 50 -4 0 -7 -13 -6
-30z"/>
<path d="M1526 740 c-44 -14 -76 -49 -76 -84 0 -45 18 -103 34 -109 37 -14 81
65 88 157 3 43 -3 48 -46 36z m22 -52 c4 -36 -14 -68 -38 -68 -27 0 -40 28
-28 59 18 48 61 54 66 9z"/>
<path d="M2818 6363 c6 -2 18 -2 25 0 6 3 1 5 -13 5 -14 0 -19 -2 -12 -5z"/>
<path d="M4010 6284 c0 -6 7 -19 15 -30 8 -10 14 -14 14 -9 0 6 -6 19 -14 29
-8 11 -15 15 -15 10z"/>
<path d="M2365 6190 l-30 -8 27 -1 c15 0 30 4 33 9 3 6 5 9 3 9 -2 -1 -16 -5
-33 -9z"/>
<path d="M2240 6163 c-65 -23 -36 -26 35 -4 35 11 50 19 35 19 -14 0 -45 -7
-70 -15z"/>
<path d="M4485 5920 c-3 -5 -2 -10 4 -10 5 0 13 5 16 10 3 6 2 10 -4 10 -5 0
-13 -4 -16 -10z"/>
<path d="M3078 5533 c7 -3 16 -2 19 1 4 3 -2 6 -13 5 -11 0 -14 -3 -6 -6z"/>
<path d="M4720 5485 c-14 -8 -19 -14 -10 -14 8 0 24 6 34 14 25 19 9 19 -24 0z"/>
<path d="M1881 5278 c-5 -13 -7 -25 -5 -27 6 -7 22 9 27 29 7 27 -12 25 -22
-2z"/>
<path d="M4150 5181 c0 -11 4 -22 9 -25 4 -3 6 6 3 19 -5 30 -12 33 -12 6z"/>
<path d="M2492 5060 c0 -14 2 -19 5 -12 2 6 2 18 0 25 -3 6 -5 1 -5 -13z"/>
<path d="M4200 4976 c0 -2 8 -10 18 -17 15 -13 16 -12 3 4 -13 16 -21 21 -21
13z"/>
<path d="M2482 4900 c0 -14 2 -19 5 -12 2 6 2 18 0 25 -3 6 -5 1 -5 -13z"/>
<path d="M4170 4876 c0 -3 15 -15 33 -27 l32 -23 -24 27 c-22 24 -41 35 -41
23z"/>
<path d="M4300 4765 c13 -14 26 -25 28 -25 3 0 -5 11 -18 25 -13 14 -26 25
-28 25 -3 0 5 -11 18 -25z"/>
<path d="M4266 4766 c6 -16 4 -18 -17 -13 -23 6 -23 5 -5 -8 24 -18 40 -20 30
-3 -4 7 -3 8 5 4 6 -4 8 -12 5 -18 -5 -7 -2 -8 6 -3 9 6 11 4 5 -5 -5 -8 -4
-11 3 -6 6 4 29 -10 52 -30 51 -46 60 -41 14 8 -19 21 -34 35 -34 31 0 -4 -16
9 -36 28 -23 22 -33 27 -28 15z"/>
<path d="M4269 4700 c13 -11 29 -20 37 -20 7 0 21 -12 30 -26 12 -18 19 -22
25 -13 11 18 4 25 -52 54 -60 30 -72 31 -40 5z"/>
<path d="M4379 4596 c14 -14 26 -24 29 -22 7 8 -8 25 -31 37 -21 11 -21 10 2
-15z"/>
<path d="M4390 4556 c0 -2 7 -7 16 -10 8 -3 12 -2 9 4 -6 10 -25 14 -25 6z"/>
<path d="M4400 4416 c0 -2 8 -10 18 -17 15 -13 16 -12 3 4 -13 16 -21 21 -21
13z"/>
<path d="M4480 4311 c0 -6 4 -13 10 -16 6 -3 7 1 4 9 -7 18 -14 21 -14 7z"/>
<path d="M3960 4300 c8 -5 24 -9 35 -9 l20 0 -20 9 c-11 5 -27 9 -35 9 -13 1
-13 0 0 -9z"/>
<path d="M4447 4303 c-4 -3 -7 -11 -7 -17 0 -6 5 -5 12 2 6 6 9 14 7 17 -3 3
-9 2 -12 -2z"/>
<path d="M4895 4251 c-18 -7 -17 -9 13 -25 17 -9 32 -24 32 -34 0 -9 7 -36 15
-60 10 -28 14 -63 10 -95 -5 -51 -4 -51 6 -12 5 22 8 83 7 135 l-3 95 -30 2
c-16 1 -39 -2 -50 -6z"/>
<path d="M3943 4183 c9 -2 23 -2 30 0 6 3 -1 5 -18 5 -16 0 -22 -2 -12 -5z"/>
<path d="M3888 4163 c7 -3 16 -2 19 1 4 3 -2 6 -13 5 -11 0 -14 -3 -6 -6z"/>
<path d="M4185 4050 c-3 -5 -2 -10 4 -10 5 0 13 5 16 10 3 6 2 10 -4 10 -5 0
-13 -4 -16 -10z"/>
<path d="M3642 4016 c7 -8 15 -12 17 -11 5 6 -10 25 -20 25 -5 0 -4 -6 3 -14z"/>
<path d="M4695 3960 c-4 -12 -5 -24 -2 -27 3 -2 8 5 12 17 4 12 5 24 2 27 -3
2 -8 -5 -12 -17z"/>
<path d="M4573 3849 c-16 -16 -17 -45 -3 -54 13 -8 23 17 18 45 -2 17 -5 19
-15 9z"/>
<path d="M4461 3784 c0 -11 3 -14 6 -6 3 7 2 16 -1 19 -3 4 -6 -2 -5 -13z"/>
<path d="M4566 3708 c9 -57 14 -61 14 -10 0 22 -5 44 -10 47 -7 4 -8 -8 -4
-37z"/>
<path d="M4527 3713 c-4 -3 -7 -27 -7 -51 0 -58 13 -47 15 13 0 25 0 45 0 45
-1 0 -5 -3 -8 -7z"/>
<path d="M4551 3694 c0 -11 3 -14 6 -6 3 7 2 16 -1 19 -3 4 -6 -2 -5 -13z"/>
<path d="M3989 3633 l-34 -38 38 34 c20 19 37 36 37 38 0 8 -8 0 -41 -34z"/>
<path d="M4542 3623 c-10 -34 -10 -36 3 -19 13 17 21 56 12 56 -2 0 -9 -17
-15 -37z"/>
<path d="M4571 3610 c-1 -8 -4 -26 -7 -40 -5 -22 -4 -23 6 -7 6 10 9 28 7 40
-2 12 -5 15 -6 7z"/>
<path d="M4482 3590 c0 -14 2 -19 5 -12 2 6 2 18 0 25 -3 6 -5 1 -5 -13z"/>
<path d="M4541 3505 c0 -16 -3 -45 -7 -63 -3 -19 -2 -43 4 -55 6 -12 13 -29
16 -37 3 -8 3 19 0 60 -5 68 -4 73 9 51 8 -13 13 -33 11 -45 -3 -13 0 -11 7 6
9 23 7 34 -15 70 -25 43 -26 43 -25 13z"/>
<path d="M4437 3413 c-4 -3 -7 -11 -7 -17 0 -6 5 -5 12 2 6 6 9 14 7 17 -3 3
-9 2 -12 -2z"/>
<path d="M4411 3325 c0 -16 3 -34 7 -40 11 -15 35 -17 29 -3 -2 7 -10 12 -16
10 -7 -1 -10 2 -7 7 3 5 2 20 -3 33 -9 22 -10 22 -10 -7z"/>
<path d="M4420 3252 c0 -5 6 -16 13 -27 10 -13 16 -15 21 -6 4 6 2 18 -4 26
-13 16 -30 20 -30 7z"/>
<path d="M4477 3223 c-4 -3 -7 -13 -6 -22 0 -12 3 -11 9 4 7 16 9 14 10 -15 0
-29 2 -32 11 -18 7 12 6 24 -1 38 -12 22 -14 23 -23 13z"/>
<path d="M4413 3183 c-7 -15 -11 -29 -8 -31 3 -3 5 0 5 7 0 7 4 10 9 6 13 -8
20 7 12 27 -5 14 -8 13 -18 -9z"/>
<path d="M3490 3149 c0 -5 4 -9 10 -9 14 0 41 -45 45 -75 2 -27 35 -70 35 -48
0 7 -5 15 -10 18 -6 4 -8 15 -5 24 3 10 -3 29 -14 43 -11 14 -19 27 -16 29 2
2 -7 9 -21 16 -13 6 -24 7 -24 2z"/>
<path d="M4312 3140 c0 -14 2 -19 5 -12 2 6 2 18 0 25 -3 6 -5 1 -5 -13z"/>
<path d="M4550 3135 c0 -14 4 -25 9 -25 4 0 6 11 3 25 -2 14 -6 25 -8 25 -2 0
-4 -11 -4 -25z"/>
<path d="M3767 3109 c4 -15 8 -17 14 -8 8 14 3 29 -11 29 -4 0 -6 -9 -3 -21z"/>
<path d="M3661 3028 c8 -29 29 -61 29 -45 0 12 -29 77 -34 77 -2 0 0 -14 5
-32z"/>
<path d="M3694 3035 c2 -13 9 -32 16 -40 21 -25 23 -9 3 22 -16 25 -16 27 0
14 19 -15 24 -2 5 17 -19 19 -26 14 -24 -13z"/>
<path d="M4390 3051 c0 -5 5 -13 10 -16 6 -3 10 -2 10 4 0 5 -4 13 -10 16 -5
3 -10 2 -10 -4z"/>
<path d="M4351 3024 c0 -11 3 -14 6 -6 3 7 2 16 -1 19 -3 4 -6 -2 -5 -13z"/>
<path d="M3290 2993 c0 -4 5 -15 10 -23 8 -13 10 -13 10 2 0 9 -4 20 -10 23
-5 3 -10 3 -10 -2z"/>
<path d="M4192 2884 c10 -10 20 -15 24 -12 3 4 -5 12 -18 18 -22 12 -22 12 -6
-6z"/>
<path d="M4161 2874 c0 -11 3 -14 6 -6 3 7 2 16 -1 19 -3 4 -6 -2 -5 -13z"/>
<path d="M3752 2855 c0 -16 2 -22 5 -12 2 9 2 23 0 30 -3 6 -5 -1 -5 -18z"/>
<path d="M4370 2861 c0 -5 5 -13 10 -16 6 -3 10 -2 10 4 0 5 -4 13 -10 16 -5
3 -10 2 -10 -4z"/>
<path d="M4326 2802 c-4 -18 -5 -36 -2 -39 11 -12 17 5 14 39 l-3 33 -9 -33z"/>
<path d="M3792 2790 c0 -14 2 -19 5 -12 2 6 2 18 0 25 -3 6 -5 1 -5 -13z"/>
<path d="M4360 2800 c0 -5 5 -10 11 -10 5 0 7 5 4 10 -3 6 -8 10 -11 10 -2 0
-4 -4 -4 -10z"/>
<path d="M4530 2781 c0 -5 5 -13 10 -16 6 -3 10 -2 10 4 0 5 -4 13 -10 16 -5
3 -10 2 -10 -4z"/>
<path d="M1975 2740 c-3 -5 -2 -10 4 -10 5 0 13 5 16 10 3 6 2 10 -4 10 -5 0
-13 -4 -16 -10z"/>
<path d="M4211 2694 c0 -11 3 -14 6 -6 3 7 2 16 -1 19 -3 4 -6 -2 -5 -13z"/>
<path d="M4247 2689 c-4 -13 -4 -25 -2 -28 3 -2 5 2 5 10 0 11 2 11 10 -1 9
-13 10 -13 10 0 0 8 -4 21 -9 28 -6 10 -10 8 -14 -9z"/>
<path d="M2467 2693 c-4 -7 -14 -10 -22 -6 -19 7 -19 -4 0 -23 23 -23 42 -14
35 16 -4 16 -8 21 -13 13z"/>
<path d="M4210 2623 c0 -4 5 -15 10 -23 8 -13 10 -13 10 2 0 9 -4 20 -10 23
-5 3 -10 3 -10 -2z"/>
<path d="M4180 2575 c13 -14 26 -23 28 -20 7 7 -29 45 -41 45 -6 0 0 -11 13
-25z"/>
<path d="M3721 2564 c0 -11 3 -14 6 -6 3 7 2 16 -1 19 -3 4 -6 -2 -5 -13z"/>
<path d="M4276 2567 c3 -10 9 -15 12 -12 3 3 0 11 -7 18 -10 9 -11 8 -5 -6z"/>
<path d="M4040 2542 c6 -13 14 -21 18 -18 3 4 -2 14 -12 24 -18 16 -18 16 -6
-6z"/>
<path d="M2988 2525 c-6 -28 6 -34 16 -9 8 22 7 34 -3 34 -5 0 -11 -11 -13
-25z"/>
<path d="M3033 2535 c-3 -9 -3 -18 -1 -21 3 -3 8 4 11 16 6 23 -1 27 -10 5z"/>
<path d="M2613 2473 c-13 -8 -23 -19 -23 -23 0 -3 10 -6 23 -5 14 1 23 9 25
23 4 26 4 26 -25 5z"/>
<path d="M3895 2460 c3 -5 13 -10 21 -10 8 0 14 -5 14 -12 0 -6 3 -8 7 -4 5 4
-1 14 -11 22 -23 16 -40 19 -31 4z"/>
<path d="M2848 2453 c6 -2 18 -2 25 0 6 3 1 5 -13 5 -14 0 -19 -2 -12 -5z"/>
<path d="M3560 2433 c0 -7 5 -15 10 -18 6 -3 10 -11 10 -17 0 -6 -10 -3 -21 8
-22 19 -22 19 -8 -3 8 -13 19 -23 25 -23 6 0 17 -7 24 -15 7 -8 21 -15 31 -15
12 0 16 -5 12 -16 -3 -8 4 -25 17 -40 21 -21 20 -29 -2 -25 -14 2 -9 -9 20
-47 35 -47 62 -78 62 -69 0 14 -24 57 -32 57 -5 0 -6 5 -3 10 3 6 3 16 -2 23
-4 6 -9 21 -10 32 -5 35 -13 46 -24 39 -8 -4 -9 -3 -5 4 10 17 -23 62 -46 62
-10 0 -17 3 -15 8 2 4 -6 18 -19 32 -13 13 -24 19 -24 13z"/>
<path d="M2603 2409 c-25 -9 -30 -19 -10 -19 15 0 43 17 37 23 -3 3 -15 1 -27
-4z"/>
<path d="M3933 2396 c4 -10 7 -22 7 -27 0 -5 4 -9 9 -9 12 0 2 38 -12 47 -7 4
-8 0 -4 -11z"/>
<path d="M4000 2373 c0 -5 9 -18 20 -28 11 -10 20 -14 20 -8 0 5 -9 18 -20 28
-11 10 -20 14 -20 8z"/>
<path d="M3843 2324 c15 -8 27 -19 27 -24 0 -14 -14 -12 -28 2 -9 9 -12 9 -12
0 0 -18 40 -36 53 -23 15 15 -19 61 -46 61 -21 -1 -20 -2 6 -16z"/>
<path d="M4345 2309 c-4 -6 -5 -12 -2 -15 2 -3 7 2 10 11 7 17 1 20 -8 4z"/>
<path d="M3610 2286 c0 -14 4 -27 8 -30 5 -3 6 8 4 25 -5 35 -12 38 -12 5z"/>
<path d="M3784 2273 c9 -17 20 -35 26 -38 18 -11 10 10 -16 40 l-25 30 15 -32z"/>
<path d="M2890 2279 c0 -5 5 -7 10 -4 6 3 10 8 10 11 0 2 -4 4 -10 4 -5 0 -10
-5 -10 -11z"/>
<path d="M3031 2269 c-7 -12 -10 -23 -8 -26 3 -3 11 5 17 17 15 28 8 35 -9 9z"/>
<path d="M3106 2273 c-6 -14 -5 -15 5 -6 7 7 10 15 7 18 -3 3 -9 -2 -12 -12z"/>
<path d="M3425 2264 c10 -8 24 -14 31 -14 7 0 21 -3 31 -6 16 -6 15 -4 -2 8
-11 8 -33 18 -50 21 -27 5 -28 4 -10 -9z"/>
<path d="M2750 2250 c-9 -6 -10 -10 -3 -10 6 0 15 5 18 10 8 12 4 12 -15 0z"/>
<path d="M3286 2238 c10 -14 21 -24 23 -22 3 3 -6 15 -18 27 l-24 22 19 -27z"/>
<path d="M3370 2256 c0 -2 7 -7 16 -10 8 -3 12 -2 9 4 -6 10 -25 14 -25 6z"/>
<path d="M4296 2224 c-4 -9 -4 -19 -1 -22 2 -3 7 3 11 12 4 9 4 19 1 22 -2 3
-7 -3 -11 -12z"/>
<path d="M2914 2216 c-3 -7 -1 -29 4 -47 9 -33 9 -33 9 14 0 48 -4 57 -13 33z"/>
<path d="M3470 2221 c0 -5 7 -12 16 -15 14 -5 15 -4 4 9 -14 17 -20 19 -20 6z"/>
<path d="M4326 2215 c-4 -11 -12 -30 -17 -42 -5 -15 -5 -23 1 -23 13 0 32 49
27 69 -3 13 -5 12 -11 -4z"/>
<path d="M3330 2211 c0 -10 30 -24 37 -17 3 2 -5 9 -16 16 -12 6 -21 7 -21 1z"/>
<path d="M3307 2180 c-6 -25 5 -40 32 -40 12 0 12 2 -1 13 -9 6 -18 21 -20 32
-3 18 -5 17 -11 -5z"/>
<path d="M3572 2146 c0 -20 4 -39 9 -42 12 -7 11 47 0 65 -6 10 -9 2 -9 -23z"/>
<path d="M2810 2145 c0 -9 6 -12 15 -9 8 4 12 10 9 15 -8 14 -24 10 -24 -6z"/>
<path d="M4235 2110 c-10 -11 -13 -20 -8 -20 13 0 38 29 31 35 -3 3 -13 -4
-23 -15z"/>
<path d="M2916 2105 c-9 -26 -7 -32 5 -12 6 10 9 21 6 23 -2 3 -7 -2 -11 -11z"/>
<path d="M4340 2100 c-6 -11 -8 -20 -6 -20 3 0 10 9 16 20 6 11 8 20 6 20 -3
0 -10 -9 -16 -20z"/>
<path d="M4165 2085 c-16 -14 -25 -25 -19 -25 6 0 21 11 34 25 30 32 24 31
-15 0z"/>
<path d="M3017 2073 c-4 -3 -7 -11 -7 -17 0 -6 5 -5 12 2 6 6 9 14 7 17 -3 3
-9 2 -12 -2z"/>
<path d="M4155 2053 c-52 -19 -67 -34 -23 -24 34 8 78 28 78 36 0 7 -9 5 -55
-12z"/>
<path d="M4052 2010 c-16 -21 -18 -28 -7 -24 16 7 40 43 33 50 -3 2 -14 -10
-26 -26z"/>
<path d="M4180 1989 c0 -5 5 -7 10 -4 6 3 10 8 10 11 0 2 -4 4 -10 4 -5 0 -10
-5 -10 -11z"/>
<path d="M4120 1975 c-14 -17 -35 -21 -24 -4 4 7 -1 10 -12 7 -11 -2 -19 -8
-19 -15 0 -6 -3 -15 -7 -19 -17 -16 -6 -22 22 -11 32 12 81 57 63 57 -6 0 -16
-7 -23 -15z"/>
<path d="M3991 1942 c-14 -12 -14 -12 3 -4 10 5 27 7 36 5 10 -3 21 0 24 6 10
15 -42 10 -63 -7z"/>
<path d="M3864 1885 c-10 -8 -15 -15 -10 -15 4 0 -2 -10 -15 -21 l-24 -21 25
15 c14 8 24 18 22 22 -2 4 5 13 15 21 10 7 15 14 12 14 -3 0 -14 -7 -25 -15z"/>
<path d="M3979 1859 c-23 -19 -23 -20 -2 -10 12 6 25 16 28 21 10 16 -1 12
-26 -11z"/>
<path d="M3798 1863 c6 -2 18 -2 25 0 6 3 1 5 -13 5 -14 0 -19 -2 -12 -5z"/>
<path d="M4040 1860 c-8 -5 -11 -12 -7 -16 4 -4 0 -16 -10 -26 -27 -30 0 -19
32 13 20 21 24 28 11 23 -14 -5 -17 -4 -12 4 9 14 6 15 -14 2z"/>
<path d="M3769 1733 c-13 -17 -13 -17 6 -3 11 8 22 16 24 17 2 2 0 3 -6 3 -6
0 -17 -8 -24 -17z"/>
<path d="M3645 1730 c-8 -13 5 -13 25 0 13 8 13 10 -2 10 -9 0 -20 -4 -23 -10z"/>
<path d="M3674 1695 c-10 -8 -14 -15 -8 -15 5 0 19 7 30 15 10 8 14 15 8 15
-5 0 -19 -7 -30 -15z"/>
<path d="M4472 1680 c0 -14 2 -19 5 -12 2 6 2 18 0 25 -3 6 -5 1 -5 -13z"/>
<path d="M3528 1663 c7 -3 16 -2 19 1 4 3 -2 6 -13 5 -11 0 -14 -3 -6 -6z"/>
<path d="M3410 1630 c-12 -8 -12 -10 5 -9 11 0 29 4 40 9 18 8 18 9 -5 9 -14
0 -32 -4 -40 -9z"/>
<path d="M3635 1620 c-17 -11 -23 -20 -15 -20 17 1 56 28 49 34 -3 3 -18 -4
-34 -14z"/>
<path d="M3551 1621 c-23 -15 3 -20 29 -5 22 12 23 13 5 13 -11 1 -26 -3 -34
-8z"/>
<path d="M3396 1593 c-4 -5 -11 -8 -14 -9 -4 0 -14 -3 -22 -7 -8 -3 -22 -8
-30 -10 -8 -3 0 -6 17 -6 18 -1 47 8 65 19 27 16 29 20 12 20 -11 0 -24 -3
-28 -7z"/>
<path d="M3475 1560 l-20 -9 20 0 c11 0 27 4 35 9 13 9 13 10 0 9 -8 0 -24 -4
-35 -9z"/>
<path d="M3308 1543 c-10 -2 -18 -9 -18 -15 0 -5 7 -7 16 -4 9 3 22 6 30 6 8
0 14 5 14 10 0 10 -12 11 -42 3z"/>
<path d="M3530 1525 c-13 -14 -19 -25 -13 -25 12 0 48 38 41 45 -2 3 -15 -6
-28 -20z"/>
<path d="M3560 1495 c-15 -8 -19 -14 -10 -14 18 -1 46 16 40 23 -3 2 -16 -2
-30 -9z"/>
<path d="M3240 1496 c0 -2 9 -6 20 -9 11 -3 20 -1 20 4 0 5 -9 9 -20 9 -11 0
-20 -2 -20 -4z"/>
<path d="M3134 1460 c3 -14 5 -28 5 -32 1 -8 26 -4 61 11 l25 10 -27 0 c-16 1
-28 7 -28 14 0 9 -3 8 -9 -2 -7 -11 -11 -10 -20 5 -10 17 -10 16 -7 -6z"/>
<path d="M3190 1470 c0 -5 7 -7 15 -4 8 4 15 8 15 10 0 2 -7 4 -15 4 -8 0 -15
-4 -15 -10z"/>
<path d="M3235 1370 c-3 -5 -1 -10 4 -10 6 0 11 5 11 10 0 6 -2 10 -4 10 -3 0
-8 -4 -11 -10z"/>
<path d="M3345 1300 c-3 -5 -1 -10 4 -10 6 0 11 5 11 10 0 6 -2 10 -4 10 -3 0
-8 -4 -11 -10z"/>
<path d="M3200 1236 c0 -2 7 -7 16 -10 8 -3 12 -2 9 4 -6 10 -25 14 -25 6z"/>
<path d="M3785 1150 c-3 -5 -2 -10 4 -10 5 0 13 5 16 10 3 6 2 10 -4 10 -5 0
-13 -4 -16 -10z"/>
<path d="M3355 1000 c-3 -6 1 -7 9 -4 18 7 21 14 7 14 -6 0 -13 -4 -16 -10z"/>
<path d="M2765 364 c-69 -37 -73 -54 -39 -151 17 -46 41 -60 74 -43 25 13 34
46 34 135 1 63 -1 70 -19 72 -11 2 -33 -5 -50 -13z m53 -47 c4 -35 -22 -77
-47 -77 -33 0 -41 51 -15 88 22 32 58 26 62 -11z"/>
<path d="M2537 353 c-4 -3 -7 -11 -7 -17 0 -6 5 -5 12 2 6 6 9 14 7 17 -3 3
-9 2 -12 -2z"/>
<path d="M4647 166 c-3 -8 -1 -31 4 -51 8 -29 16 -37 41 -42 l32 -6 -40 -33
c-21 -19 -34 -34 -28 -34 5 0 16 6 22 12 10 10 17 10 33 0 29 -18 314 -15 351
4 25 13 48 42 48 59 0 10 -48 0 -101 -20 l-46 -18 -54 26 c-37 19 -69 27 -105
27 -50 0 -54 2 -90 45 -38 46 -58 56 -67 31z"/>
</g>
</svg>
