<svg viewBox="-1159.278 1662.916 49.249 49.248" width="49.249" height="49.248">
  <path
    d="M-1134.653 1662.916c-13.6 0-24.625 11.024-24.625 24.623s11.025 24.625 24.625 24.625c13.598 0 24.624-11.025 24.624-24.625s-11.025-24.623-24.624-24.623zm-3.516 17.364 10.589 6.246-1.334 2.26-10.59-6.245 1.335-2.26zm-2.832 6.058 11.871 3.19-.681 2.536-11.872-3.191.682-2.535zm-1.178 5.49 12.241 1.127-.24 2.614-12.242-1.127.242-2.615zm11.944 4.493.002 2.626-12.294.006v-2.626l12.292-.006zm4.19 6.17s0 .613-.021.613v.01h-19.67s-.613 0-.613-.01h-.02v-12.794h2.1v10.734h16.123v-10.734h2.1v12.18zm-1.108-16.326-6.927-10.156 2.17-1.48 6.926 10.158-2.169 1.478zm2.64-1.638-2.103-12.112 2.587-.448 2.103 12.111-2.588.45z" />
</svg>